<svg width="50" height="50" viewBox="0 0 50 50" fill="none" xmlns="http://www.w3.org/2000/svg">
<path d="M17.5001 35.417L25.0001 27.917L32.5001 35.417L35.4167 32.5003L27.9167 25.0003L35.4167 17.5003L32.5001 14.5837L25.0001 22.0837L17.5001 14.5837L14.5834 17.5003L22.0834 25.0003L14.5834 32.5003L17.5001 35.417ZM25.0001 45.8337C22.1181 45.8337 19.4098 45.2868 16.8751 44.193C14.3404 43.0993 12.1355 41.6149 10.2605 39.7399C8.3855 37.8649 6.90112 35.66 5.80737 33.1253C4.71362 30.5906 4.16675 27.8823 4.16675 25.0003C4.16675 22.1184 4.71362 19.41 5.80737 16.8753C6.90112 14.3406 8.3855 12.1357 10.2605 10.2607C12.1355 8.38574 14.3404 6.90137 16.8751 5.80762C19.4098 4.71387 22.1181 4.16699 25.0001 4.16699C27.882 4.16699 30.5904 4.71387 33.1251 5.80762C35.6598 6.90137 37.8647 8.38574 39.7397 10.2607C41.6147 12.1357 43.099 14.3406 44.1928 16.8753C45.2865 19.41 45.8334 22.1184 45.8334 25.0003C45.8334 27.8823 45.2865 30.5906 44.1928 33.1253C43.099 35.66 41.6147 37.8649 39.7397 39.7399C37.8647 41.6149 35.6598 43.0993 33.1251 44.193C30.5904 45.2868 27.882 45.8337 25.0001 45.8337Z" fill="white"/>
</svg>
