<svg width="50" height="50" viewBox="0 0 50 50" fill="none" xmlns="http://www.w3.org/2000/svg">
<path d="M22.0827 34.5846L36.7702 19.8971L33.8535 16.9805L22.0827 28.7513L16.1452 22.8138L13.2285 25.7305L22.0827 34.5846ZM24.9993 45.8346C22.1174 45.8346 19.4091 45.2878 16.8743 44.194C14.3396 43.1003 12.1348 41.6159 10.2598 39.7409C8.38477 37.8659 6.90039 35.661 5.80664 33.1263C4.71289 30.5916 4.16602 27.8832 4.16602 25.0013C4.16602 22.1194 4.71289 19.411 5.80664 16.8763C6.90039 14.3416 8.38477 12.1367 10.2598 10.2617C12.1348 8.38672 14.3396 6.90234 16.8743 5.80859C19.4091 4.71484 22.1174 4.16797 24.9993 4.16797C27.8813 4.16797 30.5896 4.71484 33.1243 5.80859C35.6591 6.90234 37.8639 8.38672 39.7389 10.2617C41.6139 12.1367 43.0983 14.3416 44.1921 16.8763C45.2858 19.411 45.8327 22.1194 45.8327 25.0013C45.8327 27.8832 45.2858 30.5916 44.1921 33.1263C43.0983 35.661 41.6139 37.8659 39.7389 39.7409C37.8639 41.6159 35.6591 43.1003 33.1243 44.194C30.5896 45.2878 27.8813 45.8346 24.9993 45.8346Z" fill="#019107"/>
</svg>
